STARTFONT 2.1
COMMENT Exported by Fony v1.4.7
FONT DS-Digital4
SIZE 27 96 96
FONTBOUNDINGBOX 19 26 0 -5
STARTPROPERTIES 6
COPYRIGHT ""
RESOLUTION_X 96
RESOLUTION_Y 96
FONT_ASCENT 22
FONT_DESCENT 5
DEFAULT_CHAR 0
ENDPROPERTIES
CHARS 256
STARTCHAR 000
ENCODING 0
SWIDTH 1008 0
DWIDTH 14 0
BBX 0 0 0 0
BITMAP
ENDCHAR
STARTCHAR 001
ENCODING 1
SWIDTH 1008 0
DWIDTH 14 0
BBX 6 17 1 1
BITMAP
FC
FC
CC
CC
CC
CC
CC
CC
CC
CC
CC
CC
CC
CC
CC
CC
FC
ENDCHAR
STARTCHAR 002
ENCODING 2
SWIDTH 1008 0
DWIDTH 14 0
BBX 0 0 0 0
BITMAP
ENDCHAR
STARTCHAR 003
ENCODING 3
SWIDTH 1008 0
DWIDTH 14 0
BBX 6 17 1 1
BITMAP
FC
FC
CC
CC
CC
CC
CC
CC
CC
CC
CC
CC
CC
CC
CC
CC
FC
ENDCHAR
STARTCHAR 004
ENCODING 4
SWIDTH 1008 0
DWIDTH 14 0
BBX 6 17 1 1
BITMAP
FC
FC
CC
CC
CC
CC
CC
CC
CC
CC
CC
CC
CC
CC
CC
CC
FC
ENDCHAR
STARTCHAR 005
ENCODING 5
SWIDTH 1008 0
DWIDTH 14 0
BBX 6 17 1 1
BITMAP
FC
FC
CC
CC
CC
CC
CC
CC
CC
CC
CC
CC
CC
CC
CC
CC
FC
ENDCHAR
STARTCHAR 006
ENCODING 6
SWIDTH 1008 0
DWIDTH 14 0
BBX 6 17 1 1
BITMAP
FC
FC
CC
CC
CC
CC
CC
CC
CC
CC
CC
CC
CC
CC
CC
CC
FC
ENDCHAR
STARTCHAR 007
ENCODING 7
SWIDTH 1008 0
DWIDTH 14 0
BBX 6 17 1 1
BITMAP
FC
FC
CC
CC
CC
CC
CC
CC
CC
CC
CC
CC
CC
CC
CC
CC
FC
ENDCHAR
STARTCHAR 008
ENCODING 8
SWIDTH 1008 0
DWIDTH 14 0
BBX 6 17 1 1
BITMAP
FC
FC
CC
CC
CC
CC
CC
CC
CC
CC
CC
CC
CC
CC
CC
CC
FC
ENDCHAR
STARTCHAR 009
ENCODING 9
SWIDTH 1008 0
DWIDTH 14 0
BBX 0 0 0 0
BITMAP
ENDCHAR
STARTCHAR 010
ENCODING 10
SWIDTH 1008 0
DWIDTH 14 0
BBX 0 0 0 0
BITMAP
ENDCHAR
STARTCHAR 011
ENCODING 11
SWIDTH 1008 0
DWIDTH 14 0
BBX 6 17 1 1
BITMAP
FC
FC
CC
CC
CC
CC
CC
CC
CC
CC
CC
CC
CC
CC
CC
CC
FC
ENDCHAR
STARTCHAR 012
ENCODING 12
SWIDTH 1008 0
DWIDTH 14 0
BBX 12 22 1 0
BITMAP
FFF0
8010
8010
8010
8010
8010
8010
8010
8010
8010
8010
8010
8010
8010
8010
8010
8010
8010
8010
8010
8010
FFF0
ENDCHAR
STARTCHAR 013
ENCODING 13
SWIDTH 1008 0
DWIDTH 14 0
BBX 0 0 0 0
BITMAP
ENDCHAR
STARTCHAR 014
ENCODING 14
SWIDTH 1008 0
DWIDTH 14 0
BBX 6 17 1 1
BITMAP
FC
FC
CC
CC
CC
CC
CC
CC
CC
CC
CC
CC
CC
CC
CC
CC
FC
ENDCHAR
STARTCHAR 015
ENCODING 15
SWIDTH 1008 0
DWIDTH 14 0
BBX 6 17 1 1
BITMAP
FC
FC
CC
CC
CC
CC
CC
CC
CC
CC
CC
CC
CC
CC
CC
CC
FC
ENDCHAR
STARTCHAR 016
ENCODING 16
SWIDTH 1008 0
DWIDTH 14 0
BBX 6 17 1 1
BITMAP
FC
FC
CC
CC
CC
CC
CC
CC
CC
CC
CC
CC
CC
CC
CC
CC
FC
ENDCHAR
STARTCHAR 017
ENCODING 17
SWIDTH 1008 0
DWIDTH 14 0
BBX 6 17 1 1
BITMAP
FC
FC
CC
CC
CC
CC
CC
CC
CC
CC
CC
CC
CC
CC
CC
CC
FC
ENDCHAR
STARTCHAR 018
ENCODING 18
SWIDTH 1008 0
DWIDTH 14 0
BBX 6 17 1 1
BITMAP
FC
FC
CC
CC
CC
CC
CC
CC
CC
CC
CC
CC
CC
CC
CC
CC
FC
ENDCHAR
STARTCHAR 019
ENCODING 19
SWIDTH 1008 0
DWIDTH 14 0
BBX 6 17 1 1
BITMAP
FC
FC
CC
CC
CC
CC
CC
CC
CC
CC
CC
CC
CC
CC
CC
CC
FC
ENDCHAR
STARTCHAR 020
ENCODING 20
SWIDTH 1008 0
DWIDTH 14 0
BBX 6 17 1 1
BITMAP
FC
FC
CC
CC
CC
CC
CC
CC
CC
CC
CC
CC
CC
CC
CC
CC
FC
ENDCHAR
STARTCHAR 021
ENCODING 21
SWIDTH 1008 0
DWIDTH 14 0
BBX 6 17 1 1
BITMAP
FC
FC
CC
CC
CC
CC
CC
CC
CC
CC
CC
CC
CC
CC
CC
CC
FC
ENDCHAR
STARTCHAR 022
ENCODING 22
SWIDTH 1008 0
DWIDTH 14 0
BBX 6 17 1 1
BITMAP
FC
FC
CC
CC
CC
CC
CC
CC
CC
CC
CC
CC
CC
CC
CC
CC
FC
ENDCHAR
STARTCHAR 023
ENCODING 23
SWIDTH 1008 0
DWIDTH 14 0
BBX 6 17 1 1
BITMAP
FC
FC
CC
CC
CC
CC
CC
CC
CC
CC
CC
CC
CC
CC
CC
CC
FC
ENDCHAR
STARTCHAR 024
ENCODING 24
SWIDTH 1008 0
DWIDTH 14 0
BBX 6 17 1 1
BITMAP
FC
FC
CC
CC
CC
CC
CC
CC
CC
CC
CC
CC
CC
CC
CC
CC
FC
ENDCHAR
STARTCHAR 025
ENCODING 25
SWIDTH 1008 0
DWIDTH 14 0
BBX 6 17 1 1
BITMAP
FC
FC
CC
CC
CC
CC
CC
CC
CC
CC
CC
CC
CC
CC
CC
CC
FC
ENDCHAR
STARTCHAR 026
ENCODING 26
SWIDTH 1008 0
DWIDTH 14 0
BBX 6 17 1 1
BITMAP
FC
FC
CC
CC
CC
CC
CC
CC
CC
CC
CC
CC
CC
CC
CC
CC
FC
ENDCHAR
STARTCHAR 027
ENCODING 27
SWIDTH 1008 0
DWIDTH 14 0
BBX 6 17 1 1
BITMAP
FC
FC
CC
CC
CC
CC
CC
CC
CC
CC
CC
CC
CC
CC
CC
CC
FC
ENDCHAR
STARTCHAR 028
ENCODING 28
SWIDTH 1008 0
DWIDTH 14 0
BBX 0 0 0 0
BITMAP
ENDCHAR
STARTCHAR 029
ENCODING 29
SWIDTH 1008 0
DWIDTH 14 0
BBX 0 0 0 0
BITMAP
ENDCHAR
STARTCHAR 030
ENCODING 30
SWIDTH 1008 0
DWIDTH 14 0
BBX 0 0 0 0
BITMAP
ENDCHAR
STARTCHAR 031
ENCODING 31
SWIDTH 1008 0
DWIDTH 14 0
BBX 0 0 0 0
BITMAP
ENDCHAR
STARTCHAR 032
ENCODING 32
SWIDTH 432 0
DWIDTH 6 0
BBX 0 0 0 0
BITMAP
ENDCHAR
STARTCHAR 033
ENCODING 33
SWIDTH 576 0
DWIDTH 8 0
BBX 3 20 2 -3
BITMAP
20
60
E0
E0
E0
E0
E0
40
00
40
E0
E0
E0
E0
E0
60
20
E0
E0
E0
ENDCHAR
STARTCHAR 034
ENCODING 34
SWIDTH 576 0
DWIDTH 8 0
BBX 6 5 1 12
BITMAP
FC
FC
FC
FC
48
ENDCHAR
STARTCHAR 035
ENCODING 35
SWIDTH 1152 0
DWIDTH 16 0
BBX 13 15 2 1
BITMAP
0080
19C0
19C0
19C0
56B0
EF78
D6B0
19C0
19C0
D6B0
EF78
56B0
19C0
19C0
1880
ENDCHAR
STARTCHAR 036
ENCODING 36
SWIDTH 1008 0
DWIDTH 14 0
BBX 11 25 1 -4
BITMAP
0400
0E00
0E00
0000
1FC0
3FE0
FFC0
E000
E000
E000
E000
7F00
7F80
3F60
00E0
00E0
00E0
00E0
7FC0
FF80
7F80
0000
0E00
0E00
0400
ENDCHAR
STARTCHAR 037
ENCODING 37
SWIDTH 1368 0
DWIDTH 19 0
BBX 16 19 1 -1
BITMAP
000F
1C1C
1C1C
6338
E738
E770
5A60
3C60
1800
0080
039C
039C
0763
0E73
0E73
1C2D
1C1E
180C
0800
ENDCHAR
STARTCHAR 038
ENCODING 38
SWIDTH 1080 0
DWIDTH 15 0
BBX 13 17 1 0
BITMAP
3F00
3F80
FF00
E000
E040
E0E0
E0E0
7F50
7FB8
7F50
E0E0
E0E0
E0E0
E0E0
7F40
3F80
3F00
ENDCHAR
STARTCHAR 039
ENCODING 39
SWIDTH 360 0
DWIDTH 5 0
BBX 3 5 1 12
BITMAP
E0
E0
E0
E0
40
ENDCHAR
STARTCHAR 040
ENCODING 40
SWIDTH 576 0
DWIDTH 8 0
BBX 6 17 1 0
BITMAP
3C
38
F0
E0
E0
E0
E0
40
00
C0
E0
E0
E0
E0
70
38
3C
ENDCHAR
STARTCHAR 041
ENCODING 41
SWIDTH 576 0
DWIDTH 8 0
BBX 7 17 0 0
BITMAP
F0
78
3E
0E
0E
0E
0E
04
00
04
0E
0E
0E
0E
34
78
F0
ENDCHAR
STARTCHAR 042
ENCODING 42
SWIDTH 936 0
DWIDTH 13 0
BBX 11 13 1 4
BITMAP
0400
0E00
0E00
EFE0
F5C0
7380
0F80
75E0
FFE0
4E40
0E00
0E00
0400
ENDCHAR
STARTCHAR 043
ENCODING 43
SWIDTH 936 0
DWIDTH 13 0
BBX 11 11 1 3
BITMAP
0400
0E00
0E00
0E00
75C0
FBE0
79C0
0C00
0E00
0E00
0400
ENDCHAR
STARTCHAR 044
ENCODING 44
SWIDTH 360 0
DWIDTH 5 0
BBX 3 5 1 -3
BITMAP
E0
E0
E0
E0
40
ENDCHAR
STARTCHAR 045
ENCODING 45
SWIDTH 936 0
DWIDTH 13 0
BBX 11 3 1 7
BITMAP
7FC0
FFE0
7FC0
ENDCHAR
STARTCHAR 046
ENCODING 46
SWIDTH 360 0
DWIDTH 5 0
BBX 3 3 1 0
BITMAP
E0
E0
E0
ENDCHAR
STARTCHAR 047
ENCODING 47
SWIDTH 936 0
DWIDTH 13 0
BBX 12 19 0 -1
BITMAP
0070
00E0
00E0
01C0
03C0
0380
0380
0300
0400
0C00
1C00
3C00
3800
7800
7000
E000
6000
4000
4000
ENDCHAR
STARTCHAR 048
ENCODING 48
SWIDTH 1008 0
DWIDTH 14 0
BBX 11 17 1 0
BITMAP
7FC0
FFE0
FFE0
E0E0
E0E0
E0E0
E0E0
E0E0
E0E0
E0E0
E0E0
E0E0
E0E0
E0E0
FFE0
FFE0
7FC0
ENDCHAR
STARTCHAR 049
ENCODING 49
SWIDTH 792 0
DWIDTH 11 0
BBX 3 17 4 0
BITMAP
20
60
E0
E0
E0
E0
E0
E0
E0
E0
E0
E0
E0
E0
E0
60
20
ENDCHAR
STARTCHAR 050
ENCODING 50
SWIDTH 1008 0
DWIDTH 14 0
BBX 11 17 1 0
BITMAP
FFC0
7FE0
3FE0
00E0
00E0
00E0
00E0
3FE0
FFE0
FF00
E000
E000
E000
E000
FF80
FFC0
7FE0
ENDCHAR
STARTCHAR 051
ENCODING 51
SWIDTH 1008 0
DWIDTH 14 0
BBX 10 17 2 0
BITMAP
FF80
7FC0
3FC0
01C0
01C0
01C0
01C0
3FC0
7FC0
3FC0
01C0
01C0
01C0
01C0
3FC0
7FC0
FF80
ENDCHAR
STARTCHAR 052
ENCODING 52
SWIDTH 1008 0
DWIDTH 14 0
BBX 11 17 1 0
BITMAP
8000
C020
E0E0
E0E0
E0E0
E0E0
E0E0
7F40
7F80
3F40
00E0
00E0
00E0
00E0
00E0
0060
0020
ENDCHAR
STARTCHAR 053
ENCODING 53
SWIDTH 1008 0
DWIDTH 14 0
BBX 11 17 1 0
BITMAP
7FC0
3F80
9F00
C000
E000
E000
E000
FF00
FFE0
3FE0
00E0
00E0
00E0
0060
1F20
3FA0
7FC0
ENDCHAR
STARTCHAR 054
ENCODING 54
SWIDTH 1008 0
DWIDTH 14 0
BBX 11 17 1 0
BITMAP
7FC0
3F80
9F00
C000
E000
E000
E000
7F00
7F80
FF40
E0E0
E0E0
E0E0
C060
9F20
3FA0
7FC0
ENDCHAR
STARTCHAR 055
ENCODING 55
SWIDTH 1008 0
DWIDTH 14 0
BBX 10 17 2 0
BITMAP
FF80
7F80
3F40
00C0
01C0
01C0
01C0
00C0
0000
0080
01C0
01C0
01C0
01C0
01C0
00C0
0040
ENDCHAR
STARTCHAR 056
ENCODING 56
SWIDTH 1008 0
DWIDTH 14 0
BBX 11 17 1 0
BITMAP
7FC0
3FA0
9F20
C060
E0E0
E0E0
E0E0
7F40
7F80
FF40
E0E0
E0E0
E0E0
C060
9F20
3FA0
7FC0
ENDCHAR
STARTCHAR 057
ENCODING 57
SWIDTH 1008 0
DWIDTH 14 0
BBX 11 17 1 0
BITMAP
7FC0
3FA0
9F20
C060
E0E0
E0E0
E0E0
7F40
7F80
3F60
00E0
00E0
00E0
0060
1F20
3FA0
7FC0
ENDCHAR
STARTCHAR 058
ENCODING 58
SWIDTH 432 0
DWIDTH 6 0
BBX 3 14 1 0
BITMAP
E0
E0
E0
00
00
00
00
00
00
00
00
E0
E0
E0
ENDCHAR
STARTCHAR 059
ENCODING 59
SWIDTH 432 0
DWIDTH 6 0
BBX 3 17 1 -3
BITMAP
E0
E0
E0
00
00
00
00
00
00
00
00
00
E0
E0
E0
E0
40
ENDCHAR
STARTCHAR 060
ENCODING 60
SWIDTH 720 0
DWIDTH 10 0
BBX 7 11 2 3
BITMAP
0E
1E
3C
78
F0
00
F0
78
3C
1E
0E
ENDCHAR
STARTCHAR 061
ENCODING 61
SWIDTH 936 0
DWIDTH 13 0
BBX 11 7 1 5
BITMAP
7FC0
FFE0
7FC0
0000
7FC0
FFE0
7FC0
ENDCHAR
STARTCHAR 062
ENCODING 62
SWIDTH 720 0
DWIDTH 10 0
BBX 7 11 1 3
BITMAP
E0
F0
F8
7C
3E
00
3E
7C
F8
F0
C0
ENDCHAR
STARTCHAR 063
ENCODING 63
SWIDTH 1008 0
DWIDTH 14 0
BBX 11 20 1 -3
BITMAP
FF00
7F80
3FE0
00E0
00E0
00E0
00E0
3F40
FF80
FF00
E000
E000
E000
E000
C000
8000
0000
E000
E000
E000
ENDCHAR
STARTCHAR 064
ENCODING 64
SWIDTH 1224 0
DWIDTH 17 0
BBX 14 17 1 0
BITMAP
1FFC
1FF4
600C
E00C
E1F4
E3F8
E5F4
4E0C
0E0C
4E0C
E5EC
E3F4
E1F8
E000
5FF8
3FFC
1FFC
ENDCHAR
STARTCHAR 065
ENCODING 65
SWIDTH 1008 0
DWIDTH 14 0
BBX 11 17 1 0
BITMAP
7FC0
3FA0
9F20
C060
E0E0
E0E0
E0E0
7F40
7F80
7F40
E0E0
E0E0
E0E0
E0E0
E0E0
C060
8020
ENDCHAR
STARTCHAR 066
ENCODING 66
SWIDTH 1008 0
DWIDTH 14 0
BBX 11 17 1 0
BITMAP
7F00
3F80
9FE0
C0E0
E0E0
E0E0
E0E0
7F40
7F80
FF40
E0E0
E0E0
E0E0
E0E0
CFC0
9FE0
7FC0
ENDCHAR
STARTCHAR 067
ENCODING 67
SWIDTH 1008 0
DWIDTH 14 0
BBX 10 17 1 0
BITMAP
3FC0
7F80
FF00
E000
E000
E000
E000
4000
0000
C000
E000
E000
E000
E000
7F00
7F80
3FC0
ENDCHAR
STARTCHAR 068
ENCODING 68
SWIDTH 1008 0
DWIDTH 14 0
BBX 11 17 1 0
BITMAP
7F00
3F80
9FE0
C0E0
E0E0
E0E0
E0E0
4040
0000
C040
E0E0
E0E0
E0E0
E0E0
CFC0
9FE0
7FC0
ENDCHAR
STARTCHAR 069
ENCODING 69
SWIDTH 1008 0
DWIDTH 14 0
BBX 10 17 1 0
BITMAP
7FC0
3FC0
9F80
C000
E000
E000
E000
7F00
7F80
FF00
E000
E000
E000
C000
9F80
3FC0
7FC0
ENDCHAR
STARTCHAR 070
ENCODING 70
SWIDTH 1008 0
DWIDTH 14 0
BBX 10 17 1 0
BITMAP
7FC0
3FC0
9F80
C000
E000
E000
FF00
7F80
3F00
4000
E000
E000
E000
E000
E000
C000
8000
ENDCHAR
STARTCHAR 071
ENCODING 71
SWIDTH 1008 0
DWIDTH 14 0
BBX 11 17 1 0
BITMAP
3FE0
7FC0
FF80
E000
E000
E000
4000
0700
4FC0
E7E0
E0E0
E0E0
E0E0
E0E0
5F40
3F80
1F00
ENDCHAR
STARTCHAR 072
ENCODING 72
SWIDTH 1008 0
DWIDTH 14 0
BBX 11 17 1 0
BITMAP
8020
C060
E0E0
E0E0
E0E0
E0E0
E0E0
7F40
7F80
7F40
E0E0
E0E0
E0E0
E0E0
E0E0
C060
8020
ENDCHAR
STARTCHAR 073
ENCODING 73
SWIDTH 576 0
DWIDTH 8 0
BBX 3 17 2 0
BITMAP
20
60
E0
E0
E0
E0
E0
40
00
40
E0
E0
E0
E0
E0
60
20
ENDCHAR
STARTCHAR 074
ENCODING 74
SWIDTH 1008 0
DWIDTH 14 0
BBX 11 17 1 0
BITMAP
0020
0060
00E0
00E0
00E0
00E0
00E0
0040
0000
0040
40E0
E0E0
E0E0
E0E0
7F40
7F80
3F00
ENDCHAR
STARTCHAR 075
ENCODING 75
SWIDTH 1008 0
DWIDTH 14 0
BBX 11 17 1 0
BITMAP
81C0
C3C0
EF80
FF00
FE00
EC00
E000
7F00
7F80
7F40
E0E0
E0E0
E0E0
E0E0
E0E0
C060
8020
ENDCHAR
STARTCHAR 076
ENCODING 76
SWIDTH 1008 0
DWIDTH 14 0
BBX 10 17 1 0
BITMAP
8000
C000
E000
E000
E000
E000
E000
4000
0000
C000
E000
E000
E000
C000
9F80
3FC0
7FC0
ENDCHAR
STARTCHAR 077
ENCODING 77
SWIDTH 1008 0
DWIDTH 14 0
BBX 11 17 1 0
BITMAP
7FC0
3FA0
9F20
C060
E4E0
EEE0
EEE0
CE40
0E00
4E40
E4E0
E0E0
E0E0
E0E0
E0E0
C060
8020
ENDCHAR
STARTCHAR 078
ENCODING 78
SWIDTH 1008 0
DWIDTH 14 0
BBX 11 17 1 0
BITMAP
FC20
FE60
FFE0
FEE0
E6E0
E0E0
E0E0
4040
0000
4040
E0E0
E0E0
E0E0
E0E0
E0E0
C060
8020
ENDCHAR
STARTCHAR 079
ENCODING 79
SWIDTH 1008 0
DWIDTH 14 0
BBX 11 17 1 0
BITMAP
3F00
3F80
FFE0
E0E0
E0E0
E0E0
E0E0
4040
0000
C040
E0E0
E0E0
E0E0
E0E0
7F40
7F80
3F00
ENDCHAR
STARTCHAR 080
ENCODING 80
SWIDTH 1008 0
DWIDTH 14 0
BBX 11 17 1 0
BITMAP
7F00
3F80
9FE0
C0E0
E0E0
E0E0
E0E0
7F40
7F80
7F00
E000
E000
E000
E000
E000
C000
8000
ENDCHAR
STARTCHAR 081
ENCODING 81
SWIDTH 1008 0
DWIDTH 14 0
BBX 11 17 1 0
BITMAP
1F00
7FC0
FFE0
E0E0
E0E0
E0E0
4040
0000
0040
C0E0
E0E0
E0E0
E3C0
E3C0
5DE0
3EE0
1C60
ENDCHAR
STARTCHAR 082
ENCODING 82
SWIDTH 1008 0
DWIDTH 14 0
BBX 11 17 1 0
BITMAP
7F00
3F80
9FE0
C0E0
E0E0
E0E0
E0E0
7F40
7F80
7F00
E200
EF00
EF00
E780
E3C0
C1E0
80E0
ENDCHAR
STARTCHAR 083
ENCODING 83
SWIDTH 1008 0
DWIDTH 14 0
BBX 11 17 1 0
BITMAP
1FC0
3FE0
FFC0
E000
E000
E000
E000
7F00
7F80
3F60
00E0
00E0
00E0
00E0
7F40
FF80
7F00
ENDCHAR
STARTCHAR 084
ENCODING 84
SWIDTH 1008 0
DWIDTH 14 0
BBX 13 17 1 0
BITMAP
7FF0
FFF8
7FF0
0000
0200
0700
0700
0300
0000
0200
0700
0700
0700
0700
0700
0700
0200
ENDCHAR
STARTCHAR 085
ENCODING 85
SWIDTH 1008 0
DWIDTH 14 0
BBX 11 17 1 0
BITMAP
8020
C060
E0E0
E0E0
E0E0
E0E0
C0E0
8040
0000
C040
E0E0
E0E0
E0E0
E0E0
7F40
7F80
3F00
ENDCHAR
STARTCHAR 086
ENCODING 86
SWIDTH 936 0
DWIDTH 13 0
BBX 11 17 1 0
BITMAP
8020
C060
E0E0
E0E0
E0E0
E0E0
C060
0000
40C0
E1C0
E3C0
E780
EF00
FE00
EE00
EC00
4000
ENDCHAR
STARTCHAR 087
ENCODING 87
SWIDTH 1008 0
DWIDTH 14 0
BBX 11 17 1 0
BITMAP
8020
C060
E0E0
E0E0
E0E0
E0E0
E4E0
4E40
0E00
CE60
EEE0
EEE0
E4E0
C0E0
9E60
3F20
7FC0
ENDCHAR
STARTCHAR 088
ENCODING 88
SWIDTH 936 0
DWIDTH 13 0
BBX 11 17 1 0
BITMAP
E060
E0E0
70E0
79E0
3BC0
1F80
1B80
0B00
0000
0B00
1B80
3B80
3FC0
79E0
F0E0
E0E0
E060
ENDCHAR
STARTCHAR 089
ENCODING 89
SWIDTH 1008 0
DWIDTH 14 0
BBX 11 17 1 0
BITMAP
8020
C060
E0E0
E0E0
E0E0
E0E0
E0E0
7F40
7F80
3F40
00E0
00E0
00E0
00E0
7F40
7F80
7F00
ENDCHAR
STARTCHAR 090
ENCODING 90
SWIDTH 1008 0
DWIDTH 14 0
BBX 11 17 1 0
BITMAP
7FC0
3FE0
1FC0
0000
00C0
01E0
03C0
0380
0400
1C00
1C00
3C00
3800
1000
7F80
FFC0
7FE0
ENDCHAR
STARTCHAR 091
ENCODING 91
SWIDTH 576 0
DWIDTH 8 0
BBX 6 17 1 0
BITMAP
7C
38
98
C0
E0
E0
E0
40
00
C0
E0
E0
E0
C0
98
38
7C
ENDCHAR
STARTCHAR 092
ENCODING 92
SWIDTH 936 0
DWIDTH 13 0
BBX 12 18 0 0
BITMAP
E000
7000
7800
3800
1C00
1C00
0E00
0C00
0400
0300
0380
03C0
01E0
00E0
00F0
0070
0070
0020
ENDCHAR
STARTCHAR 093
ENCODING 93
SWIDTH 576 0
DWIDTH 8 0
BBX 7 17 0 0
BITMAP
FC
7A
36
06
0E
0E
0E
04
00
06
0E
0E
0E
0E
26
72
FC
ENDCHAR
STARTCHAR 094
ENCODING 94
SWIDTH 936 0
DWIDTH 13 0
BBX 10 7 1 10
BITMAP
0A00
1B00
3B00
7B80
FBC0
E1C0
C0C0
ENDCHAR
STARTCHAR 095
ENCODING 95
SWIDTH 936 0
DWIDTH 13 0
BBX 13 3 0 -5
BITMAP
7FF0
FFF8
7FF0
ENDCHAR
STARTCHAR 096
ENCODING 96
SWIDTH 504 0
DWIDTH 7 0
BBX 4 6 1 12
BITMAP
60
E0
F0
70
70
30
ENDCHAR
STARTCHAR 097
ENCODING 97
SWIDTH 1008 0
DWIDTH 14 0
BBX 11 17 1 0
BITMAP
7FC0
3FA0
9F20
C060
E0E0
E0E0
E0E0
7F40
7F80
7F40
E0E0
E0E0
E0E0
E0E0
E0E0
C060
8020
ENDCHAR
STARTCHAR 098
ENCODING 98
SWIDTH 1008 0
DWIDTH 14 0
BBX 11 17 1 0
BITMAP
7F00
3F80
9FE0
C0E0
E0E0
E0E0
E0E0
7F40
7F80
FF40
E0E0
E0E0
E0E0
E0E0
CFC0
9FE0
7FC0
ENDCHAR
STARTCHAR 099
ENCODING 99
SWIDTH 1008 0
DWIDTH 14 0
BBX 10 17 1 0
BITMAP
3FC0
7F80
FF00
E000
E000
E000
E000
4000
0000
C000
E000
E000
E000
E000
7F00
7F80
3FC0
ENDCHAR
STARTCHAR 100
ENCODING 100
SWIDTH 1008 0
DWIDTH 14 0
BBX 11 17 1 0
BITMAP
7F00
3F80
9FE0
C0E0
E0E0
E0E0
E0E0
4040
0000
C040
E0E0
E0E0
E0E0
E0E0
CFC0
9FE0
7FC0
ENDCHAR
STARTCHAR 101
ENCODING 101
SWIDTH 1008 0
DWIDTH 14 0
BBX 10 17 1 0
BITMAP
7FC0
3FC0
9F80
C000
E000
E000
E000
7F00
7F80
FF00
E000
E000
E000
C000
9F80
3FC0
7FC0
ENDCHAR
STARTCHAR 102
ENCODING 102
SWIDTH 1008 0
DWIDTH 14 0
BBX 10 17 1 0
BITMAP
7FC0
3FC0
9F80
C000
E000
E000
FF00
7F80
3F00
4000
E000
E000
E000
E000
E000
C000
8000
ENDCHAR
STARTCHAR 103
ENCODING 103
SWIDTH 1008 0
DWIDTH 14 0
BBX 11 17 1 0
BITMAP
3FE0
7FC0
FF80
E000
E000
E000
4000
0700
4FC0
E7E0
E0E0
E0E0
E0E0
E0E0
5F40
3F80
1F00
ENDCHAR
STARTCHAR 104
ENCODING 104
SWIDTH 1008 0
DWIDTH 14 0
BBX 11 17 1 0
BITMAP
8020
C060
E0E0
E0E0
E0E0
E0E0
E0E0
7F40
7F80
7F40
E0E0
E0E0
E0E0
E0E0
E0E0
C060
8020
ENDCHAR
STARTCHAR 105
ENCODING 105
SWIDTH 576 0
DWIDTH 8 0
BBX 3 17 2 0
BITMAP
20
60
E0
E0
E0
E0
E0
40
00
40
E0
E0
E0
E0
E0
60
20
ENDCHAR
STARTCHAR 106
ENCODING 106
SWIDTH 1008 0
DWIDTH 14 0
BBX 11 17 1 0
BITMAP
0020
0060
00E0
00E0
00E0
00E0
00E0
0040
0000
0040
40E0
E0E0
E0E0
E0E0
7F40
7F80
3F00
ENDCHAR
STARTCHAR 107
ENCODING 107
SWIDTH 1008 0
DWIDTH 14 0
BBX 11 17 1 0
BITMAP
81C0
C3C0
EF80
FF00
FE00
EC00
E000
7F00
7F80
7F40
E0E0
E0E0
E0E0
E0E0
E0E0
C060
8020
ENDCHAR
STARTCHAR 108
ENCODING 108
SWIDTH 1008 0
DWIDTH 14 0
BBX 10 17 1 0
BITMAP
8000
C000
E000
E000
E000
E000
E000
4000
0000
C000
E000
E000
E000
C000
9F80
3FC0
7FC0
ENDCHAR
STARTCHAR 109
ENCODING 109
SWIDTH 1008 0
DWIDTH 14 0
BBX 11 17 1 0
BITMAP
7FC0
3FA0
9F20
C060
E4E0
EEE0
EEE0
CE40
0E00
4E40
E4E0
E0E0
E0E0
E0E0
E0E0
C060
8020
ENDCHAR
STARTCHAR 110
ENCODING 110
SWIDTH 1008 0
DWIDTH 14 0
BBX 11 17 1 0
BITMAP
FC20
FE60
FFE0
FEE0
E6E0
E0E0
E0E0
4040
0000
4040
E0E0
E0E0
E0E0
E0E0
E0E0
C060
8020
ENDCHAR
STARTCHAR 111
ENCODING 111
SWIDTH 1008 0
DWIDTH 14 0
BBX 11 17 1 0
BITMAP
3F00
3F80
FFE0
E0E0
E0E0
E0E0
E0E0
4040
0000
C040
E0E0
E0E0
E0E0
E0E0
7F40
7F80
3F00
ENDCHAR
STARTCHAR 112
ENCODING 112
SWIDTH 1008 0
DWIDTH 14 0
BBX 11 17 1 0
BITMAP
7F00
3F80
9FE0
C0E0
E0E0
E0E0
E0E0
7F40
7F80
7F00
E000
E000
E000
E000
E000
C000
8000
ENDCHAR
STARTCHAR 113
ENCODING 113
SWIDTH 1008 0
DWIDTH 14 0
BBX 11 17 1 0
BITMAP
1F00
7FC0
FFE0
E0E0
E0E0
E0E0
4040
0000
0040
C0E0
E0E0
E0E0
E3C0
E3C0
5DE0
3EE0
1C60
ENDCHAR
STARTCHAR 114
ENCODING 114
SWIDTH 1008 0
DWIDTH 14 0
BBX 11 17 1 0
BITMAP
7F00
3F80
9FE0
C0E0
E0E0
E0E0
E0E0
7F40
7F80
7F00
E200
EF00
EF00
E780
E3C0
C1E0
80E0
ENDCHAR
STARTCHAR 115
ENCODING 115
SWIDTH 1008 0
DWIDTH 14 0
BBX 11 17 1 0
BITMAP
1FC0
3FE0
FFC0
E000
E000
E000
E000
7F00
7F80
3F60
00E0
00E0
00E0
00E0
7F40
FF80
7F00
ENDCHAR
STARTCHAR 116
ENCODING 116
SWIDTH 1008 0
DWIDTH 14 0
BBX 13 17 1 0
BITMAP
7FF0
FFF8
7FF0
0000
0200
0700
0700
0300
0000
0200
0700
0700
0700
0700
0700
0700
0200
ENDCHAR
STARTCHAR 117
ENCODING 117
SWIDTH 1008 0
DWIDTH 14 0
BBX 11 17 1 0
BITMAP
8020
C060
E0E0
E0E0
E0E0
E0E0
C0E0
8040
0000
C040
E0E0
E0E0
E0E0
E0E0
7F40
7F80
3F00
ENDCHAR
STARTCHAR 118
ENCODING 118
SWIDTH 936 0
DWIDTH 13 0
BBX 11 17 1 0
BITMAP
8020
C060
E0E0
E0E0
E0E0
E0E0
C060
0000
40C0
E1C0
E3C0
E780
EF00
FE00
EE00
EC00
4000
ENDCHAR
STARTCHAR 119
ENCODING 119
SWIDTH 1008 0
DWIDTH 14 0
BBX 11 17 1 0
BITMAP
8020
C060
E0E0
E0E0
E0E0
E0E0
E4E0
4E40
0E00
CE60
EEE0
EEE0
E4E0
C0E0
9E60
3F20
7FC0
ENDCHAR
STARTCHAR 120
ENCODING 120
SWIDTH 936 0
DWIDTH 13 0
BBX 11 17 1 0
BITMAP
E060
E0E0
70E0
79E0
3BC0
1F80
1B80
0B00
0000
0B00
1B80
3B80
3FC0
79E0
F0E0
E0E0
E060
ENDCHAR
STARTCHAR 121
ENCODING 121
SWIDTH 1008 0
DWIDTH 14 0
BBX 11 17 1 0
BITMAP
8020
C060
E0E0
E0E0
E0E0
E0E0
E0E0
7F40
7F80
3F40
00E0
00E0
00E0
00E0
7F40
7F80
7F00
ENDCHAR
STARTCHAR 122
ENCODING 122
SWIDTH 1008 0
DWIDTH 14 0
BBX 11 17 1 0
BITMAP
7FC0
3FE0
1FC0
0000
00C0
01E0
03C0
0380
0400
1C00
1C00
3C00
3800
1000
7F80
FFC0
7FE0
ENDCHAR
STARTCHAR 123
ENCODING 123
SWIDTH 792 0
DWIDTH 11 0
BBX 9 17 0 0
BITMAP
0780
0F00
1E00
1C00
1C00
1C00
1C00
4800
E000
4800
1C00
1C00
1C00
1C00
0E00
0F00
0780
ENDCHAR
STARTCHAR 124
ENCODING 124
SWIDTH 648 0
DWIDTH 9 0
BBX 3 21 3 -4
BITMAP
E0
E0
E0
E0
E0
E0
E0
E0
E0
E0
E0
E0
E0
E0
E0
E0
E0
E0
E0
E0
E0
ENDCHAR
STARTCHAR 125
ENCODING 125
SWIDTH 792 0
DWIDTH 11 0
BBX 9 17 0 0
BITMAP
F000
7800
3E00
0E00
0E00
0E00
0E00
0500
0380
0500
0E00
0E00
0E00
0E00
3400
7800
F000
ENDCHAR
STARTCHAR 126
ENCODING 126
SWIDTH 792 0
DWIDTH 11 0
BBX 9 3 1 7
BITMAP
7F80
FF80
FF80
ENDCHAR
STARTCHAR 127
ENCODING 127
SWIDTH 1008 0
DWIDTH 14 0
BBX 6 16 1 1
BITMAP
FC
CC
CC
CC
CC
CC
CC
CC
CC
CC
CC
CC
CC
CC
CC
FC
ENDCHAR
STARTCHAR 128
ENCODING 128
SWIDTH 0 0
DWIDTH 0 0
BBX 0 0 0 0
BITMAP
ENDCHAR
STARTCHAR 129
ENCODING 129
SWIDTH 0 0
DWIDTH 0 0
BBX 0 0 0 0
BITMAP
ENDCHAR
STARTCHAR 130
ENCODING 130
SWIDTH 0 0
DWIDTH 0 0
BBX 0 0 0 0
BITMAP
ENDCHAR
STARTCHAR 131
ENCODING 131
SWIDTH 0 0
DWIDTH 0 0
BBX 0 0 0 0
BITMAP
ENDCHAR
STARTCHAR 132
ENCODING 132
SWIDTH 0 0
DWIDTH 0 0
BBX 0 0 0 0
BITMAP
ENDCHAR
STARTCHAR 133
ENCODING 133
SWIDTH 0 0
DWIDTH 0 0
BBX 0 0 0 0
BITMAP
ENDCHAR
STARTCHAR 134
ENCODING 134
SWIDTH 0 0
DWIDTH 0 0
BBX 0 0 0 0
BITMAP
ENDCHAR
STARTCHAR 135
ENCODING 135
SWIDTH 0 0
DWIDTH 0 0
BBX 0 0 0 0
BITMAP
ENDCHAR
STARTCHAR 136
ENCODING 136
SWIDTH 0 0
DWIDTH 0 0
BBX 0 0 0 0
BITMAP
ENDCHAR
STARTCHAR 137
ENCODING 137
SWIDTH 0 0
DWIDTH 0 0
BBX 0 0 0 0
BITMAP
ENDCHAR
STARTCHAR 138
ENCODING 138
SWIDTH 0 0
DWIDTH 0 0
BBX 0 0 0 0
BITMAP
ENDCHAR
STARTCHAR 139
ENCODING 139
SWIDTH 0 0
DWIDTH 0 0
BBX 0 0 0 0
BITMAP
ENDCHAR
STARTCHAR 140
ENCODING 140
SWIDTH 0 0
DWIDTH 0 0
BBX 0 0 0 0
BITMAP
ENDCHAR
STARTCHAR 141
ENCODING 141
SWIDTH 0 0
DWIDTH 0 0
BBX 0 0 0 0
BITMAP
ENDCHAR
STARTCHAR 142
ENCODING 142
SWIDTH 0 0
DWIDTH 0 0
BBX 0 0 0 0
BITMAP
ENDCHAR
STARTCHAR 143
ENCODING 143
SWIDTH 0 0
DWIDTH 0 0
BBX 0 0 0 0
BITMAP
ENDCHAR
STARTCHAR 144
ENCODING 144
SWIDTH 0 0
DWIDTH 0 0
BBX 0 0 0 0
BITMAP
ENDCHAR
STARTCHAR 145
ENCODING 145
SWIDTH 0 0
DWIDTH 0 0
BBX 0 0 0 0
BITMAP
ENDCHAR
STARTCHAR 146
ENCODING 146
SWIDTH 0 0
DWIDTH 0 0
BBX 0 0 0 0
BITMAP
ENDCHAR
STARTCHAR 147
ENCODING 147
SWIDTH 0 0
DWIDTH 0 0
BBX 0 0 0 0
BITMAP
ENDCHAR
STARTCHAR 148
ENCODING 148
SWIDTH 0 0
DWIDTH 0 0
BBX 0 0 0 0
BITMAP
ENDCHAR
STARTCHAR 149
ENCODING 149
SWIDTH 0 0
DWIDTH 0 0
BBX 0 0 0 0
BITMAP
ENDCHAR
STARTCHAR 150
ENCODING 150
SWIDTH 0 0
DWIDTH 0 0
BBX 0 0 0 0
BITMAP
ENDCHAR
STARTCHAR 151
ENCODING 151
SWIDTH 0 0
DWIDTH 0 0
BBX 0 0 0 0
BITMAP
ENDCHAR
STARTCHAR 152
ENCODING 152
SWIDTH 0 0
DWIDTH 0 0
BBX 0 0 0 0
BITMAP
ENDCHAR
STARTCHAR 153
ENCODING 153
SWIDTH 0 0
DWIDTH 0 0
BBX 0 0 0 0
BITMAP
ENDCHAR
STARTCHAR 154
ENCODING 154
SWIDTH 0 0
DWIDTH 0 0
BBX 0 0 0 0
BITMAP
ENDCHAR
STARTCHAR 155
ENCODING 155
SWIDTH 0 0
DWIDTH 0 0
BBX 0 0 0 0
BITMAP
ENDCHAR
STARTCHAR 156
ENCODING 156
SWIDTH 0 0
DWIDTH 0 0
BBX 0 0 0 0
BITMAP
ENDCHAR
STARTCHAR 157
ENCODING 157
SWIDTH 0 0
DWIDTH 0 0
BBX 0 0 0 0
BITMAP
ENDCHAR
STARTCHAR 158
ENCODING 158
SWIDTH 0 0
DWIDTH 0 0
BBX 0 0 0 0
BITMAP
ENDCHAR
STARTCHAR 159
ENCODING 159
SWIDTH 0 0
DWIDTH 0 0
BBX 0 0 0 0
BITMAP
ENDCHAR
STARTCHAR 160
ENCODING 160
SWIDTH 1008 0
DWIDTH 14 0
BBX 12 22 1 0
BITMAP
FFF0
8010
8010
8010
8010
8010
8010
8010
8010
8010
8010
8010
8010
8010
8010
8010
8010
8010
8010
8010
8010
FFF0
ENDCHAR
STARTCHAR 161
ENCODING 161
SWIDTH 1008 0
DWIDTH 14 0
BBX 12 22 1 0
BITMAP
FFF0
8010
8010
8010
8010
8010
8010
8010
8010
8010
8010
8010
8010
8010
8010
8010
8010
8010
8010
8010
8010
FFF0
ENDCHAR
STARTCHAR 162
ENCODING 162
SWIDTH 1008 0
DWIDTH 14 0
BBX 12 22 1 0
BITMAP
FFF0
8010
8010
8010
8010
8010
8010
8010
8010
8010
8010
8010
8010
8010
8010
8010
8010
8010
8010
8010
8010
FFF0
ENDCHAR
STARTCHAR 163
ENCODING 163
SWIDTH 1008 0
DWIDTH 14 0
BBX 12 22 1 0
BITMAP
FFF0
8010
8010
8010
8010
8010
8010
8010
8010
8010
8010
8010
8010
8010
8010
8010
8010
8010
8010
8010
8010
FFF0
ENDCHAR
STARTCHAR 164
ENCODING 164
SWIDTH 1008 0
DWIDTH 14 0
BBX 12 22 1 0
BITMAP
FFF0
8010
8010
8010
8010
8010
8010
8010
8010
8010
8010
8010
8010
8010
8010
8010
8010
8010
8010
8010
8010
FFF0
ENDCHAR
STARTCHAR 165
ENCODING 165
SWIDTH 1008 0
DWIDTH 14 0
BBX 12 22 1 0
BITMAP
FFF0
8010
8010
8010
8010
8010
8010
8010
8010
8010
8010
8010
8010
8010
8010
8010
8010
8010
8010
8010
8010
FFF0
ENDCHAR
STARTCHAR 166
ENCODING 166
SWIDTH 1008 0
DWIDTH 14 0
BBX 12 22 1 0
BITMAP
FFF0
8010
8010
8010
8010
8010
8010
8010
8010
8010
8010
8010
8010
8010
8010
8010
8010
8010
8010
8010
8010
FFF0
ENDCHAR
STARTCHAR 167
ENCODING 167
SWIDTH 1008 0
DWIDTH 14 0
BBX 12 22 1 0
BITMAP
FFF0
8010
8010
8010
8010
8010
8010
8010
8010
8010
8010
8010
8010
8010
8010
8010
8010
8010
8010
8010
8010
FFF0
ENDCHAR
STARTCHAR 168
ENCODING 168
SWIDTH 1008 0
DWIDTH 14 0
BBX 12 22 1 0
BITMAP
FFF0
8010
8010
8010
8010
8010
8010
8010
8010
8010
8010
8010
8010
8010
8010
8010
8010
8010
8010
8010
8010
FFF0
ENDCHAR
STARTCHAR 169
ENCODING 169
SWIDTH 1008 0
DWIDTH 14 0
BBX 12 22 1 0
BITMAP
FFF0
8010
8010
8010
8010
8010
8010
8010
8010
8010
8010
8010
8010
8010
8010
8010
8010
8010
8010
8010
8010
FFF0
ENDCHAR
STARTCHAR 170
ENCODING 170
SWIDTH 1008 0
DWIDTH 14 0
BBX 12 22 1 0
BITMAP
FFF0
8010
8010
8010
8010
8010
8010
8010
8010
8010
8010
8010
8010
8010
8010
8010
8010
8010
8010
8010
8010
FFF0
ENDCHAR
STARTCHAR 171
ENCODING 171
SWIDTH 1008 0
DWIDTH 14 0
BBX 12 22 1 0
BITMAP
FFF0
8010
8010
8010
8010
8010
8010
8010
8010
8010
8010
8010
8010
8010
8010
8010
8010
8010
8010
8010
8010
FFF0
ENDCHAR
STARTCHAR 172
ENCODING 172
SWIDTH 1008 0
DWIDTH 14 0
BBX 12 22 1 0
BITMAP
FFF0
8010
8010
8010
8010
8010
8010
8010
8010
8010
8010
8010
8010
8010
8010
8010
8010
8010
8010
8010
8010
FFF0
ENDCHAR
STARTCHAR 173
ENCODING 173
SWIDTH 1008 0
DWIDTH 14 0
BBX 12 22 1 0
BITMAP
FFF0
8010
8010
8010
8010
8010
8010
8010
8010
8010
8010
8010
8010
8010
8010
8010
8010
8010
8010
8010
8010
FFF0
ENDCHAR
STARTCHAR 174
ENCODING 174
SWIDTH 1008 0
DWIDTH 14 0
BBX 12 22 1 0
BITMAP
FFF0
8010
8010
8010
8010
8010
8010
8010
8010
8010
8010
8010
8010
8010
8010
8010
8010
8010
8010
8010
8010
FFF0
ENDCHAR
STARTCHAR 175
ENCODING 175
SWIDTH 1008 0
DWIDTH 14 0
BBX 12 22 1 0
BITMAP
FFF0
8010
8010
8010
8010
8010
8010
8010
8010
8010
8010
8010
8010
8010
8010
8010
8010
8010
8010
8010
8010
FFF0
ENDCHAR
STARTCHAR 176
ENCODING 176
SWIDTH 1008 0
DWIDTH 14 0
BBX 12 22 1 0
BITMAP
FFF0
8010
8010
8010
8010
8010
8010
8010
8010
8010
8010
8010
8010
8010
8010
8010
8010
8010
8010
8010
8010
FFF0
ENDCHAR
STARTCHAR 177
ENCODING 177
SWIDTH 1008 0
DWIDTH 14 0
BBX 12 22 1 0
BITMAP
FFF0
8010
8010
8010
8010
8010
8010
8010
8010
8010
8010
8010
8010
8010
8010
8010
8010
8010
8010
8010
8010
FFF0
ENDCHAR
STARTCHAR 178
ENCODING 178
SWIDTH 1008 0
DWIDTH 14 0
BBX 12 22 1 0
BITMAP
FFF0
8010
8010
8010
8010
8010
8010
8010
8010
8010
8010
8010
8010
8010
8010
8010
8010
8010
8010
8010
8010
FFF0
ENDCHAR
STARTCHAR 179
ENCODING 179
SWIDTH 1008 0
DWIDTH 14 0
BBX 12 22 1 0
BITMAP
FFF0
8010
8010
8010
8010
8010
8010
8010
8010
8010
8010
8010
8010
8010
8010
8010
8010
8010
8010
8010
8010
FFF0
ENDCHAR
STARTCHAR 180
ENCODING 180
SWIDTH 1008 0
DWIDTH 14 0
BBX 12 22 1 0
BITMAP
FFF0
8010
8010
8010
8010
8010
8010
8010
8010
8010
8010
8010
8010
8010
8010
8010
8010
8010
8010
8010
8010
FFF0
ENDCHAR
STARTCHAR 181
ENCODING 181
SWIDTH 1008 0
DWIDTH 14 0
BBX 12 22 1 0
BITMAP
FFF0
8010
8010
8010
8010
8010
8010
8010
8010
8010
8010
8010
8010
8010
8010
8010
8010
8010
8010
8010
8010
FFF0
ENDCHAR
STARTCHAR 182
ENCODING 182
SWIDTH 1008 0
DWIDTH 14 0
BBX 12 22 1 0
BITMAP
FFF0
8010
8010
8010
8010
8010
8010
8010
8010
8010
8010
8010
8010
8010
8010
8010
8010
8010
8010
8010
8010
FFF0
ENDCHAR
STARTCHAR 183
ENCODING 183
SWIDTH 1008 0
DWIDTH 14 0
BBX 12 22 1 0
BITMAP
FFF0
8010
8010
8010
8010
8010
8010
8010
8010
8010
8010
8010
8010
8010
8010
8010
8010
8010
8010
8010
8010
FFF0
ENDCHAR
STARTCHAR 184
ENCODING 184
SWIDTH 1008 0
DWIDTH 14 0
BBX 12 22 1 0
BITMAP
FFF0
8010
8010
8010
8010
8010
8010
8010
8010
8010
8010
8010
8010
8010
8010
8010
8010
8010
8010
8010
8010
FFF0
ENDCHAR
STARTCHAR 185
ENCODING 185
SWIDTH 1008 0
DWIDTH 14 0
BBX 12 22 1 0
BITMAP
FFF0
8010
8010
8010
8010
8010
8010
8010
8010
8010
8010
8010
8010
8010
8010
8010
8010
8010
8010
8010
8010
FFF0
ENDCHAR
STARTCHAR 186
ENCODING 186
SWIDTH 1008 0
DWIDTH 14 0
BBX 12 22 1 0
BITMAP
FFF0
8010
8010
8010
8010
8010
8010
8010
8010
8010
8010
8010
8010
8010
8010
8010
8010
8010
8010
8010
8010
FFF0
ENDCHAR
STARTCHAR 187
ENCODING 187
SWIDTH 1008 0
DWIDTH 14 0
BBX 12 22 1 0
BITMAP
FFF0
8010
8010
8010
8010
8010
8010
8010
8010
8010
8010
8010
8010
8010
8010
8010
8010
8010
8010
8010
8010
FFF0
ENDCHAR
STARTCHAR 188
ENCODING 188
SWIDTH 1008 0
DWIDTH 14 0
BBX 12 22 1 0
BITMAP
FFF0
8010
8010
8010
8010
8010
8010
8010
8010
8010
8010
8010
8010
8010
8010
8010
8010
8010
8010
8010
8010
FFF0
ENDCHAR
STARTCHAR 189
ENCODING 189
SWIDTH 1008 0
DWIDTH 14 0
BBX 12 22 1 0
BITMAP
FFF0
8010
8010
8010
8010
8010
8010
8010
8010
8010
8010
8010
8010
8010
8010
8010
8010
8010
8010
8010
8010
FFF0
ENDCHAR
STARTCHAR 190
ENCODING 190
SWIDTH 1008 0
DWIDTH 14 0
BBX 12 22 1 0
BITMAP
FFF0
8010
8010
8010
8010
8010
8010
8010
8010
8010
8010
8010
8010
8010
8010
8010
8010
8010
8010
8010
8010
FFF0
ENDCHAR
STARTCHAR 191
ENCODING 191
SWIDTH 1008 0
DWIDTH 14 0
BBX 12 22 1 0
BITMAP
FFF0
8010
8010
8010
8010
8010
8010
8010
8010
8010
8010
8010
8010
8010
8010
8010
8010
8010
8010
8010
8010
FFF0
ENDCHAR
STARTCHAR 192
ENCODING 192
SWIDTH 1008 0
DWIDTH 14 0
BBX 12 22 1 0
BITMAP
FFF0
8010
8010
8010
8010
8010
8010
8010
8010
8010
8010
8010
8010
8010
8010
8010
8010
8010
8010
8010
8010
FFF0
ENDCHAR
STARTCHAR 193
ENCODING 193
SWIDTH 1008 0
DWIDTH 14 0
BBX 12 22 1 0
BITMAP
FFF0
8010
8010
8010
8010
8010
8010
8010
8010
8010
8010
8010
8010
8010
8010
8010
8010
8010
8010
8010
8010
FFF0
ENDCHAR
STARTCHAR 194
ENCODING 194
SWIDTH 1008 0
DWIDTH 14 0
BBX 12 22 1 0
BITMAP
FFF0
8010
8010
8010
8010
8010
8010
8010
8010
8010
8010
8010
8010
8010
8010
8010
8010
8010
8010
8010
8010
FFF0
ENDCHAR
STARTCHAR 195
ENCODING 195
SWIDTH 1008 0
DWIDTH 14 0
BBX 12 22 1 0
BITMAP
FFF0
8010
8010
8010
8010
8010
8010
8010
8010
8010
8010
8010
8010
8010
8010
8010
8010
8010
8010
8010
8010
FFF0
ENDCHAR
STARTCHAR 196
ENCODING 196
SWIDTH 1008 0
DWIDTH 14 0
BBX 12 22 1 0
BITMAP
FFF0
8010
8010
8010
8010
8010
8010
8010
8010
8010
8010
8010
8010
8010
8010
8010
8010
8010
8010
8010
8010
FFF0
ENDCHAR
STARTCHAR 197
ENCODING 197
SWIDTH 1008 0
DWIDTH 14 0
BBX 12 22 1 0
BITMAP
FFF0
8010
8010
8010
8010
8010
8010
8010
8010
8010
8010
8010
8010
8010
8010
8010
8010
8010
8010
8010
8010
FFF0
ENDCHAR
STARTCHAR 198
ENCODING 198
SWIDTH 1008 0
DWIDTH 14 0
BBX 12 22 1 0
BITMAP
FFF0
8010
8010
8010
8010
8010
8010
8010
8010
8010
8010
8010
8010
8010
8010
8010
8010
8010
8010
8010
8010
FFF0
ENDCHAR
STARTCHAR 199
ENCODING 199
SWIDTH 1008 0
DWIDTH 14 0
BBX 12 22 1 0
BITMAP
FFF0
8010
8010
8010
8010
8010
8010
8010
8010
8010
8010
8010
8010
8010
8010
8010
8010
8010
8010
8010
8010
FFF0
ENDCHAR
STARTCHAR 200
ENCODING 200
SWIDTH 1008 0
DWIDTH 14 0
BBX 12 22 1 0
BITMAP
FFF0
8010
8010
8010
8010
8010
8010
8010
8010
8010
8010
8010
8010
8010
8010
8010
8010
8010
8010
8010
8010
FFF0
ENDCHAR
STARTCHAR 201
ENCODING 201
SWIDTH 1008 0
DWIDTH 14 0
BBX 12 22 1 0
BITMAP
FFF0
8010
8010
8010
8010
8010
8010
8010
8010
8010
8010
8010
8010
8010
8010
8010
8010
8010
8010
8010
8010
FFF0
ENDCHAR
STARTCHAR 202
ENCODING 202
SWIDTH 1008 0
DWIDTH 14 0
BBX 12 22 1 0
BITMAP
FFF0
8010
8010
8010
8010
8010
8010
8010
8010
8010
8010
8010
8010
8010
8010
8010
8010
8010
8010
8010
8010
FFF0
ENDCHAR
STARTCHAR 203
ENCODING 203
SWIDTH 1008 0
DWIDTH 14 0
BBX 12 22 1 0
BITMAP
FFF0
8010
8010
8010
8010
8010
8010
8010
8010
8010
8010
8010
8010
8010
8010
8010
8010
8010
8010
8010
8010
FFF0
ENDCHAR
STARTCHAR 204
ENCODING 204
SWIDTH 1008 0
DWIDTH 14 0
BBX 12 22 1 0
BITMAP
FFF0
8010
8010
8010
8010
8010
8010
8010
8010
8010
8010
8010
8010
8010
8010
8010
8010
8010
8010
8010
8010
FFF0
ENDCHAR
STARTCHAR 205
ENCODING 205
SWIDTH 1008 0
DWIDTH 14 0
BBX 12 22 1 0
BITMAP
FFF0
8010
8010
8010
8010
8010
8010
8010
8010
8010
8010
8010
8010
8010
8010
8010
8010
8010
8010
8010
8010
FFF0
ENDCHAR
STARTCHAR 206
ENCODING 206
SWIDTH 1008 0
DWIDTH 14 0
BBX 12 22 1 0
BITMAP
FFF0
8010
8010
8010
8010
8010
8010
8010
8010
8010
8010
8010
8010
8010
8010
8010
8010
8010
8010
8010
8010
FFF0
ENDCHAR
STARTCHAR 207
ENCODING 207
SWIDTH 1008 0
DWIDTH 14 0
BBX 12 22 1 0
BITMAP
FFF0
8010
8010
8010
8010
8010
8010
8010
8010
8010
8010
8010
8010
8010
8010
8010
8010
8010
8010
8010
8010
FFF0
ENDCHAR
STARTCHAR 208
ENCODING 208
SWIDTH 1008 0
DWIDTH 14 0
BBX 12 22 1 0
BITMAP
FFF0
8010
8010
8010
8010
8010
8010
8010
8010
8010
8010
8010
8010
8010
8010
8010
8010
8010
8010
8010
8010
FFF0
ENDCHAR
STARTCHAR 209
ENCODING 209
SWIDTH 1008 0
DWIDTH 14 0
BBX 12 22 1 0
BITMAP
FFF0
8010
8010
8010
8010
8010
8010
8010
8010
8010
8010
8010
8010
8010
8010
8010
8010
8010
8010
8010
8010
FFF0
ENDCHAR
STARTCHAR 210
ENCODING 210
SWIDTH 1008 0
DWIDTH 14 0
BBX 12 22 1 0
BITMAP
FFF0
8010
8010
8010
8010
8010
8010
8010
8010
8010
8010
8010
8010
8010
8010
8010
8010
8010
8010
8010
8010
FFF0
ENDCHAR
STARTCHAR 211
ENCODING 211
SWIDTH 1008 0
DWIDTH 14 0
BBX 12 22 1 0
BITMAP
FFF0
8010
8010
8010
8010
8010
8010
8010
8010
8010
8010
8010
8010
8010
8010
8010
8010
8010
8010
8010
8010
FFF0
ENDCHAR
STARTCHAR 212
ENCODING 212
SWIDTH 1008 0
DWIDTH 14 0
BBX 12 22 1 0
BITMAP
FFF0
8010
8010
8010
8010
8010
8010
8010
8010
8010
8010
8010
8010
8010
8010
8010
8010
8010
8010
8010
8010
FFF0
ENDCHAR
STARTCHAR 213
ENCODING 213
SWIDTH 1008 0
DWIDTH 14 0
BBX 12 22 1 0
BITMAP
FFF0
8010
8010
8010
8010
8010
8010
8010
8010
8010
8010
8010
8010
8010
8010
8010
8010
8010
8010
8010
8010
FFF0
ENDCHAR
STARTCHAR 214
ENCODING 214
SWIDTH 1008 0
DWIDTH 14 0
BBX 12 22 1 0
BITMAP
FFF0
8010
8010
8010
8010
8010
8010
8010
8010
8010
8010
8010
8010
8010
8010
8010
8010
8010
8010
8010
8010
FFF0
ENDCHAR
STARTCHAR 215
ENCODING 215
SWIDTH 1008 0
DWIDTH 14 0
BBX 12 22 1 0
BITMAP
FFF0
8010
8010
8010
8010
8010
8010
8010
8010
8010
8010
8010
8010
8010
8010
8010
8010
8010
8010
8010
8010
FFF0
ENDCHAR
STARTCHAR 216
ENCODING 216
SWIDTH 1008 0
DWIDTH 14 0
BBX 12 22 1 0
BITMAP
FFF0
8010
8010
8010
8010
8010
8010
8010
8010
8010
8010
8010
8010
8010
8010
8010
8010
8010
8010
8010
8010
FFF0
ENDCHAR
STARTCHAR 217
ENCODING 217
SWIDTH 1008 0
DWIDTH 14 0
BBX 12 22 1 0
BITMAP
FFF0
8010
8010
8010
8010
8010
8010
8010
8010
8010
8010
8010
8010
8010
8010
8010
8010
8010
8010
8010
8010
FFF0
ENDCHAR
STARTCHAR 218
ENCODING 218
SWIDTH 1008 0
DWIDTH 14 0
BBX 12 22 1 0
BITMAP
FFF0
8010
8010
8010
8010
8010
8010
8010
8010
8010
8010
8010
8010
8010
8010
8010
8010
8010
8010
8010
8010
FFF0
ENDCHAR
STARTCHAR 219
ENCODING 219
SWIDTH 1008 0
DWIDTH 14 0
BBX 12 22 1 0
BITMAP
FFF0
8010
8010
8010
8010
8010
8010
8010
8010
8010
8010
8010
8010
8010
8010
8010
8010
8010
8010
8010
8010
FFF0
ENDCHAR
STARTCHAR 220
ENCODING 220
SWIDTH 1008 0
DWIDTH 14 0
BBX 12 22 1 0
BITMAP
FFF0
8010
8010
8010
8010
8010
8010
8010
8010
8010
8010
8010
8010
8010
8010
8010
8010
8010
8010
8010
8010
FFF0
ENDCHAR
STARTCHAR 221
ENCODING 221
SWIDTH 1008 0
DWIDTH 14 0
BBX 12 22 1 0
BITMAP
FFF0
8010
8010
8010
8010
8010
8010
8010
8010
8010
8010
8010
8010
8010
8010
8010
8010
8010
8010
8010
8010
FFF0
ENDCHAR
STARTCHAR 222
ENCODING 222
SWIDTH 1008 0
DWIDTH 14 0
BBX 12 22 1 0
BITMAP
FFF0
8010
8010
8010
8010
8010
8010
8010
8010
8010
8010
8010
8010
8010
8010
8010
8010
8010
8010
8010
8010
FFF0
ENDCHAR
STARTCHAR 223
ENCODING 223
SWIDTH 1008 0
DWIDTH 14 0
BBX 12 22 1 0
BITMAP
FFF0
8010
8010
8010
8010
8010
8010
8010
8010
8010
8010
8010
8010
8010
8010
8010
8010
8010
8010
8010
8010
FFF0
ENDCHAR
STARTCHAR 224
ENCODING 224
SWIDTH 1008 0
DWIDTH 14 0
BBX 12 22 1 0
BITMAP
FFF0
8010
8010
8010
8010
8010
8010
8010
8010
8010
8010
8010
8010
8010
8010
8010
8010
8010
8010
8010
8010
FFF0
ENDCHAR
STARTCHAR 225
ENCODING 225
SWIDTH 1008 0
DWIDTH 14 0
BBX 12 22 1 0
BITMAP
FFF0
8010
8010
8010
8010
8010
8010
8010
8010
8010
8010
8010
8010
8010
8010
8010
8010
8010
8010
8010
8010
FFF0
ENDCHAR
STARTCHAR 226
ENCODING 226
SWIDTH 1008 0
DWIDTH 14 0
BBX 12 22 1 0
BITMAP
FFF0
8010
8010
8010
8010
8010
8010
8010
8010
8010
8010
8010
8010
8010
8010
8010
8010
8010
8010
8010
8010
FFF0
ENDCHAR
STARTCHAR 227
ENCODING 227
SWIDTH 1008 0
DWIDTH 14 0
BBX 12 22 1 0
BITMAP
FFF0
8010
8010
8010
8010
8010
8010
8010
8010
8010
8010
8010
8010
8010
8010
8010
8010
8010
8010
8010
8010
FFF0
ENDCHAR
STARTCHAR 228
ENCODING 228
SWIDTH 1008 0
DWIDTH 14 0
BBX 12 22 1 0
BITMAP
FFF0
8010
8010
8010
8010
8010
8010
8010
8010
8010
8010
8010
8010
8010
8010
8010
8010
8010
8010
8010
8010
FFF0
ENDCHAR
STARTCHAR 229
ENCODING 229
SWIDTH 1008 0
DWIDTH 14 0
BBX 12 22 1 0
BITMAP
FFF0
8010
8010
8010
8010
8010
8010
8010
8010
8010
8010
8010
8010
8010
8010
8010
8010
8010
8010
8010
8010
FFF0
ENDCHAR
STARTCHAR 230
ENCODING 230
SWIDTH 1008 0
DWIDTH 14 0
BBX 12 22 1 0
BITMAP
FFF0
8010
8010
8010
8010
8010
8010
8010
8010
8010
8010
8010
8010
8010
8010
8010
8010
8010
8010
8010
8010
FFF0
ENDCHAR
STARTCHAR 231
ENCODING 231
SWIDTH 1008 0
DWIDTH 14 0
BBX 12 22 1 0
BITMAP
FFF0
8010
8010
8010
8010
8010
8010
8010
8010
8010
8010
8010
8010
8010
8010
8010
8010
8010
8010
8010
8010
FFF0
ENDCHAR
STARTCHAR 232
ENCODING 232
SWIDTH 1008 0
DWIDTH 14 0
BBX 12 22 1 0
BITMAP
FFF0
8010
8010
8010
8010
8010
8010
8010
8010
8010
8010
8010
8010
8010
8010
8010
8010
8010
8010
8010
8010
FFF0
ENDCHAR
STARTCHAR 233
ENCODING 233
SWIDTH 1008 0
DWIDTH 14 0
BBX 12 22 1 0
BITMAP
FFF0
8010
8010
8010
8010
8010
8010
8010
8010
8010
8010
8010
8010
8010
8010
8010
8010
8010
8010
8010
8010
FFF0
ENDCHAR
STARTCHAR 234
ENCODING 234
SWIDTH 1008 0
DWIDTH 14 0
BBX 12 22 1 0
BITMAP
FFF0
8010
8010
8010
8010
8010
8010
8010
8010
8010
8010
8010
8010
8010
8010
8010
8010
8010
8010
8010
8010
FFF0
ENDCHAR
STARTCHAR 235
ENCODING 235
SWIDTH 1008 0
DWIDTH 14 0
BBX 12 22 1 0
BITMAP
FFF0
8010
8010
8010
8010
8010
8010
8010
8010
8010
8010
8010
8010
8010
8010
8010
8010
8010
8010
8010
8010
FFF0
ENDCHAR
STARTCHAR 236
ENCODING 236
SWIDTH 1008 0
DWIDTH 14 0
BBX 12 22 1 0
BITMAP
FFF0
8010
8010
8010
8010
8010
8010
8010
8010
8010
8010
8010
8010
8010
8010
8010
8010
8010
8010
8010
8010
FFF0
ENDCHAR
STARTCHAR 237
ENCODING 237
SWIDTH 1008 0
DWIDTH 14 0
BBX 12 22 1 0
BITMAP
FFF0
8010
8010
8010
8010
8010
8010
8010
8010
8010
8010
8010
8010
8010
8010
8010
8010
8010
8010
8010
8010
FFF0
ENDCHAR
STARTCHAR 238
ENCODING 238
SWIDTH 1008 0
DWIDTH 14 0
BBX 12 22 1 0
BITMAP
FFF0
8010
8010
8010
8010
8010
8010
8010
8010
8010
8010
8010
8010
8010
8010
8010
8010
8010
8010
8010
8010
FFF0
ENDCHAR
STARTCHAR 239
ENCODING 239
SWIDTH 1008 0
DWIDTH 14 0
BBX 12 22 1 0
BITMAP
FFF0
8010
8010
8010
8010
8010
8010
8010
8010
8010
8010
8010
8010
8010
8010
8010
8010
8010
8010
8010
8010
FFF0
ENDCHAR
STARTCHAR 240
ENCODING 240
SWIDTH 1008 0
DWIDTH 14 0
BBX 12 22 1 0
BITMAP
FFF0
8010
8010
8010
8010
8010
8010
8010
8010
8010
8010
8010
8010
8010
8010
8010
8010
8010
8010
8010
8010
FFF0
ENDCHAR
STARTCHAR 241
ENCODING 241
SWIDTH 1008 0
DWIDTH 14 0
BBX 12 22 1 0
BITMAP
FFF0
8010
8010
8010
8010
8010
8010
8010
8010
8010
8010
8010
8010
8010
8010
8010
8010
8010
8010
8010
8010
FFF0
ENDCHAR
STARTCHAR 242
ENCODING 242
SWIDTH 1008 0
DWIDTH 14 0
BBX 12 22 1 0
BITMAP
FFF0
8010
8010
8010
8010
8010
8010
8010
8010
8010
8010
8010
8010
8010
8010
8010
8010
8010
8010
8010
8010
FFF0
ENDCHAR
STARTCHAR 243
ENCODING 243
SWIDTH 1008 0
DWIDTH 14 0
BBX 12 22 1 0
BITMAP
FFF0
8010
8010
8010
8010
8010
8010
8010
8010
8010
8010
8010
8010
8010
8010
8010
8010
8010
8010
8010
8010
FFF0
ENDCHAR
STARTCHAR 244
ENCODING 244
SWIDTH 1008 0
DWIDTH 14 0
BBX 12 22 1 0
BITMAP
FFF0
8010
8010
8010
8010
8010
8010
8010
8010
8010
8010
8010
8010
8010
8010
8010
8010
8010
8010
8010
8010
FFF0
ENDCHAR
STARTCHAR 245
ENCODING 245
SWIDTH 1008 0
DWIDTH 14 0
BBX 12 22 1 0
BITMAP
FFF0
8010
8010
8010
8010
8010
8010
8010
8010
8010
8010
8010
8010
8010
8010
8010
8010
8010
8010
8010
8010
FFF0
ENDCHAR
STARTCHAR 246
ENCODING 246
SWIDTH 1008 0
DWIDTH 14 0
BBX 12 22 1 0
BITMAP
FFF0
8010
8010
8010
8010
8010
8010
8010
8010
8010
8010
8010
8010
8010
8010
8010
8010
8010
8010
8010
8010
FFF0
ENDCHAR
STARTCHAR 247
ENCODING 247
SWIDTH 1008 0
DWIDTH 14 0
BBX 12 22 1 0
BITMAP
FFF0
8010
8010
8010
8010
8010
8010
8010
8010
8010
8010
8010
8010
8010
8010
8010
8010
8010
8010
8010
8010
FFF0
ENDCHAR
STARTCHAR 248
ENCODING 248
SWIDTH 1008 0
DWIDTH 14 0
BBX 12 22 1 0
BITMAP
FFF0
8010
8010
8010
8010
8010
8010
8010
8010
8010
8010
8010
8010
8010
8010
8010
8010
8010
8010
8010
8010
FFF0
ENDCHAR
STARTCHAR 249
ENCODING 249
SWIDTH 1008 0
DWIDTH 14 0
BBX 12 22 1 0
BITMAP
FFF0
8010
8010
8010
8010
8010
8010
8010
8010
8010
8010
8010
8010
8010
8010
8010
8010
8010
8010
8010
8010
FFF0
ENDCHAR
STARTCHAR 250
ENCODING 250
SWIDTH 1008 0
DWIDTH 14 0
BBX 12 22 1 0
BITMAP
FFF0
8010
8010
8010
8010
8010
8010
8010
8010
8010
8010
8010
8010
8010
8010
8010
8010
8010
8010
8010
8010
FFF0
ENDCHAR
STARTCHAR 251
ENCODING 251
SWIDTH 1008 0
DWIDTH 14 0
BBX 12 22 1 0
BITMAP
FFF0
8010
8010
8010
8010
8010
8010
8010
8010
8010
8010
8010
8010
8010
8010
8010
8010
8010
8010
8010
8010
FFF0
ENDCHAR
STARTCHAR 252
ENCODING 252
SWIDTH 1008 0
DWIDTH 14 0
BBX 12 22 1 0
BITMAP
FFF0
8010
8010
8010
8010
8010
8010
8010
8010
8010
8010
8010
8010
8010
8010
8010
8010
8010
8010
8010
8010
FFF0
ENDCHAR
STARTCHAR 253
ENCODING 253
SWIDTH 1008 0
DWIDTH 14 0
BBX 12 22 1 0
BITMAP
FFF0
8010
8010
8010
8010
8010
8010
8010
8010
8010
8010
8010
8010
8010
8010
8010
8010
8010
8010
8010
8010
FFF0
ENDCHAR
STARTCHAR 254
ENCODING 254
SWIDTH 1008 0
DWIDTH 14 0
BBX 12 22 1 0
BITMAP
FFF0
8010
8010
8010
8010
8010
8010
8010
8010
8010
8010
8010
8010
8010
8010
8010
8010
8010
8010
8010
8010
FFF0
ENDCHAR
STARTCHAR 255
ENCODING 255
SWIDTH 1008 0
DWIDTH 14 0
BBX 12 22 1 0
BITMAP
FFF0
8010
8010
8010
8010
8010
8010
8010
8010
8010
8010
8010
8010
8010
8010
8010
8010
8010
8010
8010
8010
FFF0
ENDCHAR
ENDFONT
